<?xml version="1.0" encoding="UTF-8"?>
<svg id="Layer_2" data-name="Layer 2" xmlns="http://www.w3.org/2000/svg" viewBox="0 0 1000 107">
  <defs>
    <style>
      .cls-1 {
        fill: #FF6B2C;
        stroke-width: 0px;
      }
    </style>
  </defs>
  <g id="Layer_3" data-name="Layer 3">
    <g>
      <polygon class="cls-1" points="523.85 0 523.85 14.54 508.89 14.54 508.89 92.31 523.85 92.31 523.85 107 599.7 107 599.7 92.31 613.71 92.31 613.71 49.87 573.27 49.87 573.27 0 523.85 0"/>
      <polygon class="cls-1" points="502.35 34.28 502.35 14.54 487.88 14.54 487.88 0 399.92 0 399.92 14.54 385.38 14.54 385.38 92.31 399.92 92.31 399.92 107 487.88 107 487.88 92.31 502.54 92.31 502.54 72.72 446.13 72.72 446.13 67.1 500.54 67.1 500.54 39.72 446.13 39.72 446.13 34.28 502.35 34.28"/>
      <polygon class="cls-1" points="208.71 14.54 208.71 0 167.91 0 167.91 14.54 154.7 14.54 154.7 92.31 168.83 92.31 168.83 107 208.34 107 208.34 92.31 222.71 92.31 222.71 14.54 208.71 14.54"/>
      <polygon class="cls-1" points="999.82 34.28 999.82 14.54 985.46 14.54 985.46 0 897.5 0 897.5 14.54 882.85 14.54 882.85 92.31 897.5 92.31 897.5 107 985.46 107 985.46 92.31 1000 92.31 1000 72.72 943.6 72.72 943.6 67.1 998.01 67.1 998.01 39.72 943.6 39.72 943.6 34.28 999.82 34.28"/>
      <polygon class="cls-1" points="861.53 14.54 861.53 0 775.43 0 775.43 14.54 761.34 14.54 761.34 54.22 786.73 54.22 786.73 92.31 801.53 92.31 801.53 107 836.38 107 836.38 92.31 851.11 92.31 851.11 54.22 876.49 54.22 876.49 14.54 861.53 14.54"/>
      <polygon class="cls-1" points="312.84 0 306.13 38.45 304.68 38.45 297.97 0 227.24 0 245.01 52.05 228.15 107 299.24 107 305.04 75.63 306.49 75.63 312.29 107 379.94 107 363.07 52.05 380.85 0 312.84 0"/>
      <path class="cls-1" d="M732.94,14.54V0h-84.24v14.54h-14.22l-18.96,92.46h68.04v-14.69h15.47v14.69h67.75l-18.96-92.46h-14.86ZM687.16,69.82l2.72-33.73h2.54l2.72,33.73h-7.98Z"/>
      <path class="cls-1" d="M95.94,0H14.54v14.54H0v77.77h14.54v14.69h53.47v-14.51h27.75c39.54,0,53.5-12.15,53.5-46.06S135.11,0,95.94,0ZM72.18,61.84h-4.17v-29.02h4.17c5.44,0,7.07,3.45,7.07,14.33s-1.63,14.69-7.07,14.69Z"/>
    </g>
  </g>
</svg>