<?xml version="1.0" encoding="UTF-8"?>
<svg id="Layer_2" data-name="Layer 2" xmlns="http://www.w3.org/2000/svg" viewBox="0 0 1000 186.4">
  <defs>
    <style>
      .cls-1 {
        fill: #ffc81b;
      }

      .cls-1, .cls-2 {
        stroke-width: 0px;
      }

      .cls-2 {
        fill: #0046ff;
      }
    </style>
  </defs>
  <g id="Layer_3" data-name="Layer 3">
    <g>
      <polygon class="cls-2" points="523.85 79.4 523.85 93.94 508.89 93.94 508.89 171.71 523.85 171.71 523.85 186.4 599.7 186.4 599.7 171.71 613.71 171.71 613.71 129.27 573.27 129.27 573.27 79.4 523.85 79.4"/>
      <polygon class="cls-2" points="502.35 113.68 502.35 93.94 487.88 93.94 487.88 79.4 399.92 79.4 399.92 93.94 385.38 93.94 385.38 171.71 399.92 171.71 399.92 186.4 487.88 186.4 487.88 171.71 502.54 171.71 502.54 152.12 446.13 152.12 446.13 146.5 500.54 146.5 500.54 119.12 446.13 119.12 446.13 113.68 502.35 113.68"/>
      <polygon class="cls-2" points="208.71 93.94 208.71 79.4 167.91 79.4 167.91 93.94 154.7 93.94 154.7 171.71 168.83 171.71 168.83 186.4 208.34 186.4 208.34 171.71 222.71 171.71 222.71 93.94 208.71 93.94"/>
      <polygon class="cls-2" points="999.82 113.68 999.82 93.94 985.46 93.94 985.46 79.4 897.5 79.4 897.5 93.94 882.85 93.94 882.85 171.71 897.5 171.71 897.5 186.4 985.46 186.4 985.46 171.71 1000 171.71 1000 152.12 943.6 152.12 943.6 146.5 998.01 146.5 998.01 119.12 943.6 119.12 943.6 113.68 999.82 113.68"/>
      <polygon class="cls-2" points="861.53 93.94 861.53 79.4 775.43 79.4 775.43 93.94 761.34 93.94 761.34 133.62 786.73 133.62 786.73 171.71 801.53 171.71 801.53 186.4 836.38 186.4 836.38 171.71 851.11 171.71 851.11 133.62 876.49 133.62 876.49 93.94 861.53 93.94"/>
      <polygon class="cls-2" points="312.84 79.4 306.13 117.85 304.68 117.85 297.97 79.4 227.24 79.4 245.01 131.45 228.15 186.4 299.24 186.4 305.04 155.03 306.49 155.03 312.29 186.4 379.94 186.4 363.07 131.45 380.85 79.4 312.84 79.4"/>
      <path class="cls-2" d="M732.94,93.94v-14.54h-84.24v14.54h-14.22l-18.96,92.46h68.04v-14.69h15.47v14.69h67.75l-18.96-92.46h-14.86ZM687.16,149.22l2.72-33.73h2.54l2.72,33.73h-7.98Z"/>
      <path class="cls-2" d="M95.94,79.4H14.54v14.54H0v77.77h14.54v14.69h53.47v-14.51h27.75c39.54,0,53.5-12.15,53.5-46.06s-14.15-46.43-53.32-46.43ZM72.18,141.24h-4.17v-29.02h4.17c5.44,0,7.07,3.45,7.07,14.33s-1.63,14.69-7.07,14.69Z"/>
    </g>
    <g>
      <rect class="cls-1" x="181.58" y="27.2" width="13.6" height="13.6"/>
      <rect class="cls-1" x="167.98" y="54.4" width="13.6" height="13.6"/>
      <rect class="cls-1" x="154.38" y="40.8" width="13.6" height="13.6"/>
      <rect class="cls-1" x="154.38" y="13.6" width="13.6" height="13.6"/>
      <rect class="cls-1" x="167.98" width="13.6" height="13.6"/>
      <rect class="cls-1" x="208.79" y="40.8" width="13.6" height="13.6"/>
      <rect class="cls-1" x="195.19" y="54.41" width="13.6" height="13.6"/>
      <rect class="cls-1" x="195.19" width="13.6" height="13.6"/>
      <rect class="cls-1" x="208.79" y="13.6" width="13.6" height="13.6"/>
    </g>
  </g>
</svg>