<?xml version="1.0" encoding="UTF-8"?>
<svg id="Layer_2" data-name="Layer 2" xmlns="http://www.w3.org/2000/svg" viewBox="0 0 1000 192.26">
  <defs>
    <style>
      .cls-1 {
        fill: #ffc81b;
      }

      .cls-1, .cls-2 {
        stroke-width: 0px;
      }

      .cls-2 {
        fill: #e9e9e9;
      }
    </style>
  </defs>
  <g id="Layer_3" data-name="Layer 3">
    <g>
      <polygon class="cls-2" points="523.85 85.26 523.85 99.8 508.89 99.8 508.89 177.57 523.85 177.57 523.85 192.26 599.7 192.26 599.7 177.57 613.71 177.57 613.71 135.14 573.27 135.14 573.27 85.26 523.85 85.26"/>
      <polygon class="cls-2" points="502.35 119.54 502.35 99.8 487.88 99.8 487.88 85.26 399.92 85.26 399.92 99.8 385.38 99.8 385.38 177.57 399.92 177.57 399.92 192.26 487.88 192.26 487.88 177.57 502.54 177.57 502.54 157.99 446.13 157.99 446.13 152.36 500.54 152.36 500.54 124.98 446.13 124.98 446.13 119.54 502.35 119.54"/>
      <polygon class="cls-2" points="208.71 99.8 208.71 85.26 167.91 85.26 167.91 99.8 154.7 99.8 154.7 177.57 168.83 177.57 168.83 192.26 208.34 192.26 208.34 177.57 222.71 177.57 222.71 99.8 208.71 99.8"/>
      <polygon class="cls-2" points="999.82 119.54 999.82 99.8 985.46 99.8 985.46 85.26 897.5 85.26 897.5 99.8 882.85 99.8 882.85 177.57 897.5 177.57 897.5 192.26 985.46 192.26 985.46 177.57 1000 177.57 1000 157.99 943.6 157.99 943.6 152.36 998.01 152.36 998.01 124.98 943.6 124.98 943.6 119.54 999.82 119.54"/>
      <polygon class="cls-2" points="861.53 99.8 861.53 85.26 775.43 85.26 775.43 99.8 761.34 99.8 761.34 139.49 786.73 139.49 786.73 177.57 801.53 177.57 801.53 192.26 836.38 192.26 836.38 177.57 851.11 177.57 851.11 139.49 876.49 139.49 876.49 99.8 861.53 99.8"/>
      <polygon class="cls-2" points="312.84 85.26 306.13 123.71 304.68 123.71 297.97 85.26 227.24 85.26 245.01 137.31 228.15 192.26 299.24 192.26 305.04 160.89 306.49 160.89 312.29 192.26 379.94 192.26 363.07 137.31 380.85 85.26 312.84 85.26"/>
      <path class="cls-2" d="M732.94,99.8v-14.54h-84.24v14.54h-14.22l-18.96,92.46h68.04v-14.69h15.47v14.69h67.75l-18.96-92.46h-14.86ZM687.16,155.08l2.72-33.73h2.54l2.72,33.73h-7.98Z"/>
      <path class="cls-2" d="M95.94,85.26H14.54v14.54H0v77.77h14.54v14.69h53.47v-14.51h27.75c39.54,0,53.5-12.15,53.5-46.06s-14.15-46.43-53.32-46.43ZM72.18,147.1h-4.17v-29.02h4.17c5.44,0,7.07,3.45,7.07,14.33s-1.63,14.69-7.07,14.69Z"/>
    </g>
    <g>
      <rect class="cls-1" x="181.61" y="29.19" width="14.6" height="14.6"/>
      <rect class="cls-1" x="167.01" y="58.39" width="14.6" height="14.6"/>
      <rect class="cls-1" x="152.41" y="43.79" width="14.6" height="14.6"/>
      <rect class="cls-1" x="152.41" y="14.6" width="14.6" height="14.6"/>
      <rect class="cls-1" x="167.01" width="14.6" height="14.6"/>
      <rect class="cls-1" x="210.8" y="43.79" width="14.6" height="14.6"/>
      <rect class="cls-1" x="196.21" y="58.39" width="14.6" height="14.6"/>
      <rect class="cls-1" x="196.21" width="14.6" height="14.6"/>
      <rect class="cls-1" x="210.8" y="14.6" width="14.6" height="14.6"/>
    </g>
  </g>
</svg>